# xmcd
#
# Track frame offsets: 
#        150
#        11753
#        25996
#        39045
#        51721
#        65595
#        79110
#        92990
#        104869
#        116437
#        128861
#        142349
#        156373
#        168233
#        181244
#        194956
#        208829
#        219372
#
# Disc length: 3108 seconds
#
# Revision: 1
# Processed by: cddbd v1.5.2PL0 Copyright (c) Steve Scherf et al.
# Submitted via: ExactAudioCopy v0.95b2
#
DISCID=170c2212
DTITLE=Johnny Temple - The Essential Johnny Temple Disc 2
DYEAR=1900
DGENRE=blues
TTITLE0=Mama's Bad Luck Child
TTITLE1=What Is That Smells Like Gravy
TTITLE2=Big Leg Woman
TTITLE3=Big Woman Blues
TTITLE4=Up Today, Down Tomorrow
TTITLE5=The Sun Goes Down in Blood
TTITLE6=Cherry Ball
TTITLE7=Sundown Blues
TTITLE8=Jinxlee Blues
TTITLE9=Yum Yum Yum 
TTITLE10=Better Not Let My Good Gal Catch You Here
TTITLE11=Streamline Blues
TTITLE12=Fix It Up and Go
TTITLE13=Jive Me, Baby
TTITLE14=Let's Get Together
TTITLE15=Roomin' House Blues
TTITLE16=Sit Right on It
TTITLE17=Lovin' Woman Blues
EXTD=
EXTT0=
EXTT1=
EXTT2=
EXTT3=
EXTT4=
EXTT5=
EXTT6=
EXTT7=
EXTT8=
EXTT9=
EXTT10=
EXTT11=
EXTT12=
EXTT13=
EXTT14=
EXTT15=
EXTT16=
EXTT17=
PLAYORDER=
